<svg xmlns="http://www.w3.org/2000/svg" version="1.1" xmlns:xlink="http://www.w3.org/1999/xlink" viewBox="0 0 200 200"><rect width="200" height="200" fill="url('#gradient')"></rect><defs><linearGradient id="gradient" gradientTransform="rotate(45 0.5 0.5)"><stop offset="0%" stop-color="#54585c"></stop><stop offset="100%" stop-color="#a395a3"></stop></linearGradient></defs><g><g fill="#bfccde" transform="matrix(1.741825741825742,0,0,1.741825741825742,8.605701550883573,110.42615422768125)" stroke="#5a4646" stroke-width="0.75"><path d="M12.71-7.60L12.71-1.76Q11.92-0.88 10.40-0.34Q8.88 0.20 7.06 0.20L7.06 0.20Q4.27 0.20 2.60-1.51Q0.93-3.22 0.81-6.27L0.81-6.27L0.80-7.50Q0.80-9.60 1.54-11.17Q2.29-12.73 3.67-13.58Q5.05-14.42 6.87-14.42L6.87-14.42Q9.52-14.42 10.99-13.21Q12.46-11.99 12.71-9.58L12.71-9.58L9.40-9.58Q9.23-10.77 8.64-11.28Q8.06-11.79 6.98-11.79L6.98-11.79Q5.69-11.79 4.99-10.69Q4.29-9.60 4.28-7.57L4.28-7.57L4.28-6.71Q4.28-4.58 5.00-3.51Q5.73-2.44 7.29-2.44L7.29-2.44Q8.63-2.44 9.29-3.04L9.29-3.04L9.29-5.24L6.90-5.24L6.90-7.60L12.71-7.60ZM16.59-3.19L16.59-3.19Q17.37-3.19 17.89-2.73Q18.41-2.27 18.41-1.54Q18.41-0.82 17.89-0.36Q17.37 0.11 16.59 0.11L16.59 0.11Q15.80 0.11 15.29-0.36Q14.78-0.83 14.78-1.54Q14.78-2.26 15.29-2.72Q15.80-3.19 16.59-3.19ZM29.66 0L28.83-2.66L24.13-2.66L23.31 0L19.65 0L24.86-14.22L28.09-14.22L33.34 0L29.66 0ZM26.47-10.23L24.95-5.30L28.01-5.30L26.47-10.23ZM42.12 0L42.12 2.45L33.30 2.45L33.30 0L42.12 0ZM54.84-7.60L54.84-1.76Q54.05-0.88 52.53-0.34Q51.01 0.20 49.19 0.20L49.19 0.20Q46.40 0.20 44.73-1.51Q43.06-3.22 42.94-6.27L42.94-6.27L42.93-7.50Q42.93-9.60 43.67-11.17Q44.41-12.73 45.80-13.58Q47.18-14.42 48.99-14.42L48.99-14.42Q51.65-14.42 53.12-13.21Q54.59-11.99 54.83-9.58L54.83-9.58L51.53-9.58Q51.36-10.77 50.77-11.28Q50.19-11.79 49.11-11.79L49.11-11.79Q47.82-11.79 47.12-10.69Q46.42-9.60 46.41-7.57L46.41-7.57L46.41-6.71Q46.41-4.58 47.13-3.51Q47.86-2.44 49.42-2.44L49.42-2.44Q50.76-2.44 51.42-3.04L51.42-3.04L51.42-5.24L49.03-5.24L49.03-7.60L54.84-7.60ZM65.93 0L62.64 0Q62.46-0.32 62.32-0.95L62.32-0.95Q61.42 0.20 59.79 0.20L59.79 0.20Q58.29 0.20 57.25-0.71Q56.20-1.61 56.20-2.98L56.20-2.98Q56.20-4.70 57.47-5.58Q58.74-6.46 61.16-6.46L61.16-6.46L62.18-6.46L62.18-7.01Q62.18-8.47 60.92-8.47L60.92-8.47Q59.75-8.47 59.75-7.31L59.75-7.31L56.46-7.31Q56.46-8.85 57.76-9.80Q59.06-10.76 61.08-10.76Q63.11-10.76 64.28-9.78Q65.45-8.79 65.48-7.07L65.48-7.07L65.48-2.39Q65.50-0.94 65.93-0.17L65.93-0.17L65.93 0ZM60.58-2.15L60.58-2.15Q61.19-2.15 61.60-2.41Q62.00-2.68 62.18-3.01L62.18-3.01L62.18-4.70L61.22-4.70Q59.50-4.70 59.50-3.15L59.50-3.15Q59.50-2.71 59.80-2.43Q60.11-2.15 60.58-2.15ZM67.32-10.57L70.41-10.57L70.52-9.33Q71.64-10.76 73.54-10.76L73.54-10.76Q75.54-10.76 76.24-9.17L76.24-9.17Q77.31-10.76 79.35-10.76L79.35-10.76Q82.56-10.76 82.65-6.88L82.65-6.88L82.65 0L79.35 0L79.35-6.67Q79.35-7.48 79.07-7.85Q78.80-8.22 78.08-8.22L78.08-8.22Q77.10-8.22 76.62-7.35L76.62-7.35L76.63-7.22L76.63 0L73.33 0L73.33-6.65Q73.33-7.48 73.07-7.85Q72.80-8.22 72.06-8.22L72.06-8.22Q71.11-8.22 70.62-7.35L70.62-7.35L70.62 0L67.32 0L67.32-10.57ZM89.64 0.20L89.64 0.20Q87.21 0.20 85.70-1.25Q84.20-2.71 84.20-5.03L84.20-5.03L84.20-5.30Q84.20-6.92 84.80-8.16Q85.40-9.40 86.55-10.08Q87.71-10.76 89.29-10.76L89.29-10.76Q91.51-10.76 92.80-9.38Q94.09-8.00 94.09-5.53L94.09-5.53L94.09-4.25L87.55-4.25Q87.72-3.36 88.32-2.85Q88.92-2.34 89.86-2.34L89.86-2.34Q91.43-2.34 92.30-3.44L92.30-3.44L93.81-1.66Q93.19-0.81 92.07-0.31Q90.94 0.20 89.64 0.20ZM89.27-8.22L89.27-8.22Q87.82-8.22 87.55-6.31L87.55-6.31L90.87-6.31L90.87-6.56Q90.89-7.35 90.47-7.79Q90.05-8.22 89.27-8.22ZM100.95-2.97L100.95-2.97Q100.95-3.39 100.51-3.64Q100.07-3.90 98.84-4.17Q97.61-4.44 96.81-4.89Q96.01-5.33 95.59-5.97Q95.17-6.60 95.17-7.42L95.17-7.42Q95.17-8.88 96.37-9.82Q97.57-10.76 99.51-10.76L99.51-10.76Q101.60-10.76 102.87-9.81Q104.14-8.87 104.14-7.32L104.14-7.32L100.84-7.32Q100.84-8.59 99.50-8.59L99.50-8.59Q98.98-8.59 98.63-8.31Q98.28-8.02 98.28-7.59L98.28-7.59Q98.28-7.15 98.71-6.88Q99.14-6.60 100.08-6.43Q101.03-6.25 101.74-6.01L101.74-6.01Q104.12-5.19 104.12-3.07L104.12-3.07Q104.12-1.62 102.84-0.71Q101.55 0.20 99.51 0.20L99.51 0.20Q98.15 0.20 97.09-0.29Q96.03-0.78 95.43-1.62Q94.83-2.46 94.83-3.39L94.83-3.39L97.91-3.39Q97.93-2.66 98.40-2.32Q98.87-1.98 99.60-1.98L99.60-1.98Q100.27-1.98 100.61-2.26Q100.95-2.53 100.95-2.97Z"></path></g></g></svg>